<svg width="192" height="62" viewBox="0 0 192 62" fill="none" xmlns="http://www.w3.org/2000/svg">
<g clip-path="url(#clip0_67_7943)">
<path d="M47.6455 21.0808C46.4207 21.6091 45.0878 21.9894 43.7149 22.1375C45.1403 21.2907 46.2077 19.9529 46.7168 18.375C45.3793 19.1707 43.914 19.7287 42.386 20.0241C41.7474 19.3414 40.975 18.7975 40.117 18.4263C39.2589 18.0551 38.3337 17.8647 37.3988 17.8667C33.6163 17.8667 30.5744 20.9327 30.5744 24.6951C30.5744 25.2235 30.6384 25.7518 30.7425 26.2602C25.0788 25.964 20.0275 23.2582 16.6694 19.1155C16.0575 20.1607 15.7368 21.3507 15.7408 22.5618C15.7408 24.9313 16.9455 27.0207 18.7827 28.2495C17.7 28.2068 16.6427 27.9092 15.6967 27.3809V27.4649C15.6967 30.7831 18.0422 33.5329 21.1683 34.1653C20.5813 34.3178 19.9775 34.3957 19.3711 34.3974C18.9268 34.3974 18.5065 34.3534 18.0823 34.2934C18.9468 36.9991 21.4645 38.9644 24.4624 39.0284C22.1169 40.8656 19.179 41.9463 15.9889 41.9463C15.4165 41.9463 14.8882 41.9263 14.3398 41.8623C17.3658 43.8035 20.9561 44.9243 24.8226 44.9243C37.3748 44.9243 44.2432 34.5255 44.2432 25.4997C44.2432 25.2035 44.2432 24.9073 44.2232 24.6111C45.5521 23.6385 46.7168 22.4337 47.6455 21.0808Z" fill="#2091F9"/>
<path d="M110.713 15.3853H81.2535C80.545 15.3853 79.9727 15.9576 79.9727 16.6661V46.1252C79.9727 46.8337 80.545 47.406 81.2535 47.406H110.713C111.421 47.406 111.993 46.8337 111.993 46.1252V16.6661C111.993 15.9576 111.421 15.3853 110.713 15.3853ZM107.014 24.7313H104.457C102.451 24.7313 102.063 25.6839 102.063 27.0848V30.1708H106.85L106.226 35.002H102.063V47.406H97.0718V35.006H92.897V30.1708H97.0718V26.6085C97.0718 22.4739 99.5974 20.2204 103.288 20.2204C105.057 20.2204 106.574 20.3525 107.018 20.4125V24.7313H107.014Z" fill="#2091F9"/>
<path d="M175.697 15.3853H146.238C145.529 15.3853 144.957 15.9576 144.957 16.6661V46.1252C144.957 46.8337 145.529 47.406 146.238 47.406H175.697C176.405 47.406 176.978 46.8337 176.978 46.1252V16.6661C176.978 15.9576 176.405 15.3853 175.697 15.3853ZM154.455 42.671H149.704V27.389H154.455V42.671ZM152.082 25.2997C151.537 25.2997 151.005 25.1382 150.552 24.8356C150.099 24.533 149.746 24.1029 149.537 23.5997C149.329 23.0965 149.275 22.5428 149.381 22.0087C149.487 21.4745 149.749 20.9838 150.134 20.5987C150.52 20.2136 151.01 19.9513 151.544 19.845C152.079 19.7388 152.632 19.7933 153.135 20.0017C153.639 20.2102 154.069 20.5631 154.371 21.016C154.674 21.4688 154.835 22.0013 154.835 22.5459C154.831 24.0669 153.599 25.2997 152.082 25.2997ZM172.243 42.671H167.496V35.2381C167.496 33.465 167.464 31.1875 165.026 31.1875C162.556 31.1875 162.176 33.1168 162.176 35.1101V42.671H157.433V27.389H161.988V29.4784H162.052C162.685 28.2776 164.234 27.0088 166.547 27.0088C171.358 27.0088 172.243 30.1748 172.243 34.2895V42.671Z" fill="#2091F9"/>
</g>
<defs>
<clipPath id="clip0_67_7943">
<rect width="170.96" height="40.9866" fill="white" transform="translate(10.5 10.9023)"/>
</clipPath>
</defs>
</svg>
