<svg width="172" height="42" viewBox="0 0 172 42" fill="none" xmlns="http://www.w3.org/2000/svg">
<g clip-path="url(#clip0_65_316)">
<path d="M37.6845 10.6854C36.4597 11.2137 35.1269 11.5939 33.754 11.742C35.1793 10.8952 36.2467 9.55742 36.7559 7.9796C35.4184 8.77527 33.9531 9.33321 32.4251 9.62867C31.7865 8.94593 31.0141 8.40203 30.156 8.03086C29.298 7.65969 28.3727 7.4692 27.4379 7.47127C23.6554 7.47127 20.6134 10.5373 20.6134 14.2997C20.6134 14.828 20.6775 15.3564 20.7815 15.8647C15.1179 15.5685 10.0666 12.8628 6.70842 8.72008C6.09652 9.76522 5.77587 10.9552 5.77981 12.1663C5.77981 14.5359 6.9846 16.6252 8.82179 17.854C7.7391 17.8114 6.68177 17.5138 5.73579 16.9854V17.0695C5.73579 20.3876 8.08131 23.1374 11.2073 23.7698C10.6204 23.9223 10.0166 24.0003 9.41017 24.002C8.96588 24.002 8.54561 23.958 8.12133 23.8979C8.98589 26.6037 11.5035 28.569 14.5015 28.633C12.156 30.4702 9.21805 31.5509 6.02798 31.5509C5.4556 31.5509 4.92726 31.5309 4.37891 31.4668C7.40487 33.4081 10.9952 34.5288 14.8617 34.5288C27.4139 34.5288 34.2823 24.1301 34.2823 15.1042C34.2823 14.808 34.2823 14.5118 34.2623 14.2156C35.5912 13.243 36.7559 12.0382 37.6845 10.6854Z" fill="white"/>
<path d="M100.752 4.98962H71.2925C70.5841 4.98962 70.0117 5.562 70.0117 6.27046V35.7296C70.0117 36.438 70.5841 37.0104 71.2925 37.0104H100.752C101.46 37.0104 102.032 36.438 102.032 35.7296V6.27046C102.032 5.562 101.46 4.98962 100.752 4.98962ZM97.0533 14.3357H94.4956C92.4903 14.3357 92.1021 15.2883 92.1021 16.6892V19.7752H96.8892L96.2648 24.6064H92.1021V37.0104H87.1108V24.6104H82.9361V19.7752H87.1108V16.2129C87.1108 12.0782 89.6365 9.82476 93.3268 9.82476C95.096 9.82476 96.613 9.95685 97.0573 10.0169V14.3357H97.0533Z" fill="white"/>
<path d="M165.736 4.98962H136.277C135.568 4.98962 134.996 5.562 134.996 6.27046V35.7296C134.996 36.438 135.568 37.0104 136.277 37.0104H165.736C166.444 37.0104 167.017 36.438 167.017 35.7296V6.27046C167.017 5.562 166.444 4.98962 165.736 4.98962ZM144.494 32.2753H139.743V16.9934H144.494V32.2753ZM142.121 14.9041C141.576 14.9041 141.044 14.7425 140.591 14.44C140.138 14.1374 139.785 13.7073 139.577 13.2041C139.368 12.7009 139.314 12.1472 139.42 11.613C139.526 11.0789 139.788 10.5882 140.173 10.203C140.559 9.81792 141.049 9.55565 141.583 9.4494C142.118 9.34314 142.671 9.39768 143.175 9.6061C143.678 9.81453 144.108 10.1675 144.41 10.6203C144.713 11.0732 144.875 11.6056 144.875 12.1503C144.871 13.6713 143.638 14.9041 142.121 14.9041ZM162.282 32.2753H157.535V24.8425C157.535 23.0694 157.503 20.7919 155.065 20.7919C152.596 20.7919 152.215 22.7211 152.215 24.7144V32.2753H147.472V16.9934H152.027V19.0828H152.091C152.724 17.882 154.273 16.6132 156.586 16.6132C161.397 16.6132 162.282 19.7792 162.282 23.8939V32.2753Z" fill="white"/>
</g>
<defs>
<clipPath id="clip0_65_316">
<rect width="170.96" height="40.9866" fill="white" transform="translate(0.539062 0.506714)"/>
</clipPath>
</defs>
</svg>
